<?xml version="1.0" encoding="UTF-8"?>
<svg width="77px" height="77px" viewBox="0 0 77 77" version="1.1" xmlns="http://www.w3.org/2000/svg" xmlns:xlink="http://www.w3.org/1999/xlink">
    <title>Group 37</title>
    <g id="Page-1" stroke="none" stroke-width="1" fill="none" fill-rule="evenodd">
        <g id="01-Landing-Page-No-CGL" transform="translate(-262.000000, -707.000000)">
            <g id="Group-37" transform="translate(263.000000, 708.000000)">
                <path d="M61.7590741,9.81481481 L62.7785185,11.1111111 L61.1109259,11.1111111 C60.8331481,11.1111111 60.5553704,11.2962963 60.3701852,11.4814815 L59.4442593,12.8703704 L58.8887037,11.2962963 C58.7961111,11.0185185 58.5183333,10.7407407 58.2405556,10.7407407 L56.6664815,10.2777778 L58.0553704,9.25925926 C58.3331481,9.07407407 58.4257407,8.7962963 58.4257407,8.51851852 L58.3331481,6.85185185 L59.722037,7.87037037 C60.0007407,8.05555556 60.2775926,8.05555556 60.5553704,7.96296296 L62.1294444,7.40740741 L61.5738889,8.98148148 C61.4812963,9.25925926 61.5738889,9.62962963 61.7590741,9.81481481 M65.3701852,11.4814815 L63.5183333,9.07407407 L64.4442593,6.11111111 C64.5368519,5.74074074 64.4442593,5.37037037 64.1674074,5.18518519 C63.8887037,4.90740741 63.5183333,4.81481481 63.2414815,5 L60.3701852,6.01851852 L57.8701852,4.25925926 C57.5924074,4.07407407 57.222963,3.98148148 56.8516667,4.16666667 C56.5738889,4.35185185 56.3887037,4.62962963 56.3887037,5 L56.4812963,8.05555556 L53.9822222,9.90740741 C53.7035185,10.0925926 53.5192593,10.462963 53.6109259,10.8333333 C53.7035185,11.2037037 53.8887037,11.4814815 54.2590741,11.5740741 L57.222963,12.4074074 L58.1488889,15.3703704 C58.2405556,15.7407407 58.5183333,15.9259259 58.8887037,16.0185185 L58.9812963,16.0185185 C59.2590741,16.0185185 59.5377778,15.8333333 59.722037,15.6481481 L61.4812963,13.1481481 L64.5368519,13.1481481 C64.9072222,13.1481481 65.185,12.962963 65.3701852,12.5925926 C65.647963,12.2222222 65.647963,11.7592593 65.3701852,11.4814815" id="Fill-1" fill="#004E70"></path>
                <path d="M61.7590741,9.81481481 L62.7785185,11.1111111 L61.1109259,11.1111111 C60.8331481,11.1111111 60.5553704,11.2962963 60.3701852,11.4814815 L59.4442593,12.8703704 L58.8887037,11.2962963 C58.7961111,11.0185185 58.5183333,10.7407407 58.2405556,10.7407407 L56.6664815,10.2777778 L58.0553704,9.25925926 C58.3331481,9.07407407 58.4257407,8.7962963 58.4257407,8.51851852 L58.3331481,6.85185185 L59.722037,7.87037037 C60.0007407,8.05555556 60.2775926,8.05555556 60.5553704,7.96296296 L62.1294444,7.40740741 L61.5738889,8.98148148 C61.4812963,9.25925926 61.5738889,9.62962963 61.7590741,9.81481481 Z M65.3701852,11.4814815 L63.5183333,9.07407407 L64.4442593,6.11111111 C64.5368519,5.74074074 64.4442593,5.37037037 64.1674074,5.18518519 C63.8887037,4.90740741 63.5183333,4.81481481 63.2414815,5 L60.3701852,6.01851852 L57.8701852,4.25925926 C57.5924074,4.07407407 57.222963,3.98148148 56.8516667,4.16666667 C56.5738889,4.35185185 56.3887037,4.62962963 56.3887037,5 L56.4812963,8.05555556 L53.9822222,9.90740741 C53.7035185,10.0925926 53.5192593,10.462963 53.6109259,10.8333333 C53.7035185,11.2037037 53.8887037,11.4814815 54.2590741,11.5740741 L57.222963,12.4074074 L58.1488889,15.3703704 C58.2405556,15.7407407 58.5183333,15.9259259 58.8887037,16.0185185 L58.9812963,16.0185185 C59.2590741,16.0185185 59.5377778,15.8333333 59.722037,15.6481481 L61.4812963,13.1481481 L64.5368519,13.1481481 C64.9072222,13.1481481 65.185,12.962963 65.3701852,12.5925926 C65.647963,12.2222222 65.647963,11.7592593 65.3701852,11.4814815 Z" id="Stroke-3" stroke="#004E70"></path>
                <path d="M17.1297222,14.2590741 L15.5556481,14.9072222 C15.2778704,14.9998148 15.0926852,15.2775926 15.0000926,15.5553704 L14.7223148,17.222037 L13.6112037,15.9257407 C13.4260185,15.7405556 13.1482407,15.5553704 12.7778704,15.647963 L11.1112037,15.8331481 L11.944537,14.3516667 C12.1297222,14.0738889 12.1297222,13.7961111 11.944537,13.5183333 L11.3889815,12.0368519 L13.0556481,12.4072222 C13.3334259,12.4998148 13.7037963,12.4072222 13.8889815,12.222037 L15.0926852,11.1109259 L15.2778704,12.7775926 C15.2778704,13.0553704 15.4630556,13.3331481 15.7408333,13.5183333 L17.1297222,14.2590741 Z M16.8519444,16.3887037 L19.6297222,15.185 C19.9075,14.9998148 20.1852778,14.722037 20.1852778,14.3516667 C20.1852778,13.9812963 20.0000926,13.7035185 19.7223148,13.5183333 L17.0371296,12.0368519 L16.7593519,8.9812963 C16.7593519,8.61092593 16.4815741,8.33314815 16.2037963,8.24055556 C15.8334259,8.14796296 15.4630556,8.14796296 15.2778704,8.42574074 L13.0556481,10.5553704 L9.9075,9.81462963 C9.53712963,9.72203704 9.16675926,9.90722222 8.98157407,10.0924074 C8.79638889,10.3701852 8.7037963,10.7405556 8.88898148,11.0183333 L10.1852778,13.7961111 L8.6112037,16.5738889 C8.42601852,16.8516667 8.42601852,17.222037 8.6112037,17.5924074 C8.79638889,17.8701852 9.16675926,18.0553704 9.53712963,17.9627778 L12.5926852,17.5924074 L14.6297222,19.9072222 C14.8149074,20.0924074 15.0926852,20.185 15.370463,20.185 L15.6482407,20.185 C16.0186111,20.0924074 16.2037963,19.8146296 16.2963889,19.4442593 L16.8519444,16.3887037 Z" id="Fill-5" fill="#004E70"></path>
                <path d="M17.1297222,14.2590741 L15.5556481,14.9072222 C15.2778704,14.9998148 15.0926852,15.2775926 15.0000926,15.5553704 L14.7223148,17.222037 L13.6112037,15.9257407 C13.4260185,15.7405556 13.1482407,15.5553704 12.7778704,15.647963 L11.1112037,15.8331481 L11.944537,14.3516667 C12.1297222,14.0738889 12.1297222,13.7961111 11.944537,13.5183333 L11.3889815,12.0368519 L13.0556481,12.4072222 C13.3334259,12.4998148 13.7037963,12.4072222 13.8889815,12.222037 L15.0926852,11.1109259 L15.2778704,12.7775926 C15.2778704,13.0553704 15.4630556,13.3331481 15.7408333,13.5183333 L17.1297222,14.2590741 Z M16.8519444,16.3887037 L19.6297222,15.185 C19.9075,14.9998148 20.1852778,14.722037 20.1852778,14.3516667 C20.1852778,13.9812963 20.0000926,13.7035185 19.7223148,13.5183333 L17.0371296,12.0368519 L16.7593519,8.9812963 C16.7593519,8.61092593 16.4815741,8.33314815 16.2037963,8.24055556 C15.8334259,8.14796296 15.4630556,8.14796296 15.2778704,8.42574074 L13.0556481,10.5553704 L9.9075,9.81462963 C9.53712963,9.72203704 9.16675926,9.90722222 8.98157407,10.0924074 C8.79638889,10.3701852 8.7037963,10.7405556 8.88898148,11.0183333 L10.1852778,13.7961111 L8.6112037,16.5738889 C8.42601852,16.8516667 8.42601852,17.222037 8.6112037,17.5924074 C8.79638889,17.8701852 9.16675926,18.0553704 9.53712963,17.9627778 L12.5926852,17.5924074 L14.6297222,19.9072222 C14.8149074,20.0924074 15.0926852,20.185 15.370463,20.185 L15.6482407,20.185 C16.0186111,20.0924074 16.2037963,19.8146296 16.2963889,19.4442593 L16.8519444,16.3887037 Z" id="Stroke-7" stroke="#004E70"></path>
                <path d="M9.72231481,56.4818519 C8.7037963,56.4818519 7.96305556,55.6485185 7.96305556,54.7225926 C7.96305556,53.7966667 8.79638889,52.9624074 9.72231481,52.9624074 C10.7408333,52.9624074 11.4815741,53.7966667 11.4815741,54.7225926 C11.4815741,55.6485185 10.7408333,56.4818519 9.72231481,56.4818519 M9.72231481,58.3337037 C11.7593519,58.3337037 13.3334259,56.6661111 13.3334259,54.7225926 C13.3334259,52.6846296 11.6667593,51.1105556 9.72231481,51.1105556 C7.68527778,51.1105556 6.1112037,52.7781481 6.1112037,54.7225926 C6.1112037,56.6661111 7.77787037,58.3337037 9.72231481,58.3337037" id="Fill-9" fill="#004E70"></path>
                <path d="M9.72231481,56.4818519 C8.7037963,56.4818519 7.96305556,55.6485185 7.96305556,54.7225926 C7.96305556,53.7966667 8.79638889,52.9624074 9.72231481,52.9624074 C10.7408333,52.9624074 11.4815741,53.7966667 11.4815741,54.7225926 C11.4815741,55.6485185 10.7408333,56.4818519 9.72231481,56.4818519 Z M9.72231481,58.3337037 C11.7593519,58.3337037 13.3334259,56.6661111 13.3334259,54.7225926 C13.3334259,52.6846296 11.6667593,51.1105556 9.72231481,51.1105556 C7.68527778,51.1105556 6.1112037,52.7781481 6.1112037,54.7225926 C6.1112037,56.6661111 7.77787037,58.3337037 9.72231481,58.3337037 Z" id="Stroke-11" stroke="#004E70"></path>
                <path d="M38.147963,4.99981481 C38.147963,6.01833333 37.3155556,6.75907407 36.3887037,6.75907407 C35.4627778,6.75907407 34.6294444,5.92574074 34.6294444,4.99981481 C34.6294444,4.07388889 35.4627778,3.24055556 36.3887037,3.24055556 C37.3155556,3.24055556 38.147963,3.9812963 38.147963,4.99981481 M39.9998148,4.99981481 C39.9998148,2.96277778 38.3331481,1.3887037 36.3887037,1.3887037 C34.3516667,1.3887037 32.7775926,3.05537037 32.7775926,4.99981481 C32.7775926,6.94425926 34.4442593,8.61092593 36.3887037,8.61092593 C38.4257407,8.61092593 39.9998148,6.94425926 39.9998148,4.99981481" id="Fill-13" fill="#004E70"></path>
                <path d="M38.147963,4.99981481 C38.147963,6.01833333 37.3155556,6.75907407 36.3887037,6.75907407 C35.4627778,6.75907407 34.6294444,5.92574074 34.6294444,4.99981481 C34.6294444,4.07388889 35.4627778,3.24055556 36.3887037,3.24055556 C37.3155556,3.24055556 38.147963,3.9812963 38.147963,4.99981481 Z M39.9998148,4.99981481 C39.9998148,2.96277778 38.3331481,1.3887037 36.3887037,1.3887037 C34.3516667,1.3887037 32.7775926,3.05537037 32.7775926,4.99981481 C32.7775926,6.94425926 34.4442593,8.61092593 36.3887037,8.61092593 C38.4257407,8.61092593 39.9998148,6.94425926 39.9998148,4.99981481 Z" id="Stroke-15" stroke="#004E70"></path>
                <path d="M72.1296296,71.9440741 L68.4259259,70.3709259 L69.9074074,66.482037 L72.1296296,71.9440741 Z M53.4259259,27.5931481 L42.2222222,59.3514815 L35.7407407,56.6662963 L46.2962963,26.7588889 L51.0185185,22.0375926 L53.4259259,27.5931481 Z M22.1296296,50.832963 L28.5185185,44.4440741 L25.7407407,52.3153704 L22.1296296,50.832963 Z M31.5740741,41.482037 L43.2407407,29.7218519 L34.0740741,55.9255556 L27.4074074,53.1477778 L31.5740741,41.482037 Z M58.6111111,39.907037 L50.3703704,62.7783333 L43.8888889,60.0922222 L54.537037,30.1848148 L58.6111111,39.907037 Z M63.7037037,52.0366667 L63.7037037,52.0366667 L58.6111111,66.2959259 L52.1296296,63.5181481 L59.7222222,42.407963 L63.7037037,52.0366667 Z M68.7962963,63.9811111 L66.6666667,69.6292593 L60.2777778,66.945 L64.7222222,54.5366667 L68.7962963,63.9811111 Z M73.5185185,74.5375926 C73.6111111,74.6292593 73.7962963,74.6292593 73.8888889,74.6292593 C74.1666667,74.6292593 74.3518519,74.5375926 74.537037,74.3524074 C74.8148148,74.0746296 74.9074074,73.7033333 74.7222222,73.332963 L70.6481481,63.6107407 L60.462963,39.4440741 L52.2222222,19.907037 C52.1296296,19.6292593 51.8518519,19.4440741 51.5740741,19.3514815 C51.2962963,19.2598148 50.9259259,19.3514815 50.7407407,19.6292593 L19.9074074,50.4635185 C19.7222222,50.6477778 19.6296296,51.0181481 19.6296296,51.2959259 C19.7222222,51.5737037 19.9074074,51.8524074 20.1851852,51.9440741 L73.5185185,74.5375926 Z" id="Fill-17" fill="#004E70"></path>
                <path d="M72.1296296,71.9440741 L68.4259259,70.3709259 L69.9074074,66.482037 L72.1296296,71.9440741 Z M53.4259259,27.5931481 L42.2222222,59.3514815 L35.7407407,56.6662963 L46.2962963,26.7588889 L51.0185185,22.0375926 L53.4259259,27.5931481 Z M22.1296296,50.832963 L28.5185185,44.4440741 L25.7407407,52.3153704 L22.1296296,50.832963 Z M31.5740741,41.482037 L43.2407407,29.7218519 L34.0740741,55.9255556 L27.4074074,53.1477778 L31.5740741,41.482037 Z M58.6111111,39.907037 L50.3703704,62.7783333 L43.8888889,60.0922222 L54.537037,30.1848148 L58.6111111,39.907037 Z M63.7037037,52.0366667 L63.7037037,52.0366667 L58.6111111,66.2959259 L52.1296296,63.5181481 L59.7222222,42.407963 L63.7037037,52.0366667 Z M68.7962963,63.9811111 L66.6666667,69.6292593 L60.2777778,66.945 L64.7222222,54.5366667 L68.7962963,63.9811111 Z M73.5185185,74.5375926 C73.6111111,74.6292593 73.7962963,74.6292593 73.8888889,74.6292593 C74.1666667,74.6292593 74.3518519,74.5375926 74.537037,74.3524074 C74.8148148,74.0746296 74.9074074,73.7033333 74.7222222,73.332963 L70.6481481,63.6107407 L60.462963,39.4440741 L52.2222222,19.907037 C52.1296296,19.6292593 51.8518519,19.4440741 51.5740741,19.3514815 C51.2962963,19.2598148 50.9259259,19.3514815 50.7407407,19.6292593 L19.9074074,50.4635185 C19.7222222,50.6477778 19.6296296,51.0181481 19.6296296,51.2959259 C19.7222222,51.5737037 19.9074074,51.8524074 20.1851852,51.9440741 L73.5185185,74.5375926 Z" id="Stroke-19" stroke="#004E70"></path>
                <path d="M32.5001852,28.5187037 C32.2224074,28.5187037 31.9446296,28.4261111 31.7594444,28.1483333 C31.4816667,27.6853704 23.9816667,17.4075926 26.0187037,1.29648148 C26.1112963,0.833518519 26.5742593,0.463148148 27.0372222,0.463148148 C27.5001852,0.555740741 27.8705556,1.0187037 27.8705556,1.48166667 C25.9261111,16.7594444 33.1483333,26.852037 33.2409259,26.9446296 C33.5187037,27.315 33.4261111,27.9631481 33.0557407,28.2409259 C32.8705556,28.5187037 32.6853704,28.5187037 32.5001852,28.5187037" id="Fill-21" fill="#004E70"></path>
                <path d="M32.5001852,28.5187037 C32.2224074,28.5187037 31.9446296,28.4261111 31.7594444,28.1483333 C31.4816667,27.6853704 23.9816667,17.4075926 26.0187037,1.29648148 C26.1112963,0.833518519 26.5742593,0.463148148 27.0372222,0.463148148 C27.5001852,0.555740741 27.8705556,1.0187037 27.8705556,1.48166667 C25.9261111,16.7594444 33.1483333,26.852037 33.2409259,26.9446296 C33.5187037,27.315 33.4261111,27.9631481 33.0557407,28.2409259 C32.8705556,28.5187037 32.6853704,28.5187037 32.5001852,28.5187037 Z" id="Stroke-23" stroke="#004E70"></path>
                <path d="M1.20361111,25.9258333 C17.2221296,23.5184259 26.9443519,35.4628704 27.129537,35.6480556 C27.4073148,36.0184259 27.4073148,36.6665741 26.9443519,36.9443519 C26.7591667,37.0369444 26.5739815,37.129537 26.3887963,37.129537 C26.1110185,37.129537 25.8332407,37.0369444 25.6480556,36.7591667 C25.555463,36.6665741 16.4813889,25.555463 1.48138889,27.7776852 C1.01842593,27.8702778 0.46287037,27.4999074 0.46287037,27.0369444 C0.46287037,26.5739815 0.740648148,26.0184259 1.20361111,25.9258333" id="Fill-25" fill="#004E70"></path>
                <path d="M1.20361111,25.9258333 C17.2221296,23.5184259 26.9443519,35.4628704 27.129537,35.6480556 C27.4073148,36.0184259 27.4073148,36.6665741 26.9443519,36.9443519 C26.7591667,37.0369444 26.5739815,37.129537 26.3887963,37.129537 C26.1110185,37.129537 25.8332407,37.0369444 25.6480556,36.7591667 C25.555463,36.6665741 16.4813889,25.555463 1.48138889,27.7776852 C1.01842593,27.8702778 0.46287037,27.4999074 0.46287037,27.0369444 C0.46287037,26.5739815 0.740648148,26.0184259 1.20361111,25.9258333 Z" id="Stroke-27" stroke="#004E70"></path>
                <path d="M42.1292593,21.2035185 L41.945,21.2035185 C41.482037,21.2035185 41.1107407,20.9257407 41.0190741,20.4627778 C40.9255556,20.0924074 38.8885185,10.8331481 45.1857407,5.27759259 C45.5551852,4.90722222 46.1116667,4.99981481 46.4811111,5.37018519 C46.8524074,5.74055556 46.7588889,6.29611111 46.3894444,6.66648148 C40.9255556,11.4812963 42.7774074,19.9998148 42.7774074,20.0924074 C42.9625926,20.5553704 42.5922222,21.1109259 42.1292593,21.2035185" id="Fill-29" fill="#004E70"></path>
                <path d="M42.1292593,21.2035185 L41.945,21.2035185 C41.482037,21.2035185 41.1107407,20.9257407 41.0190741,20.4627778 C40.9255556,20.0924074 38.8885185,10.8331481 45.1857407,5.27759259 C45.5551852,4.90722222 46.1116667,4.99981481 46.4811111,5.37018519 C46.8524074,5.74055556 46.7588889,6.29611111 46.3894444,6.66648148 C40.9255556,11.4812963 42.7774074,19.9998148 42.7774074,20.0924074 C42.9625926,20.5553704 42.5922222,21.1109259 42.1292593,21.2035185 Z" id="Stroke-31" stroke="#004E70"></path>
                <path d="M19.444537,42.5925 C19.9075,42.7776852 20.1852778,43.2406481 20.0926852,43.7036111 C20.0000926,44.1665741 19.444537,44.4443519 18.9815741,44.3517593 C18.8889815,44.3517593 8.51861111,41.2036111 3.98157407,47.5925 C3.79638889,47.8702778 3.51861111,47.9628704 3.24083333,47.9628704 C3.05564815,47.9628704 2.87046296,47.8702778 2.68527778,47.7776852 C2.31490741,47.4999074 2.12972222,46.9443519 2.50009259,46.4813889 C7.68527778,39.0739815 18.9815741,42.4073148 19.444537,42.5925" id="Fill-33" fill="#004E70"></path>
                <path d="M19.444537,42.5925 C19.9075,42.7776852 20.1852778,43.2406481 20.0926852,43.7036111 C20.0000926,44.1665741 19.444537,44.4443519 18.9815741,44.3517593 C18.8889815,44.3517593 8.51861111,41.2036111 3.98157407,47.5925 C3.79638889,47.8702778 3.51861111,47.9628704 3.24083333,47.9628704 C3.05564815,47.9628704 2.87046296,47.8702778 2.68527778,47.7776852 C2.31490741,47.4999074 2.12972222,46.9443519 2.50009259,46.4813889 C7.68527778,39.0739815 18.9815741,42.4073148 19.444537,42.5925 Z" id="Stroke-35" stroke="#004E70"></path>
            </g>
        </g>
    </g>
</svg>